Coordinates
version=1
nRows=7
nColumns=42
inDegrees=yes

Units are S.I. units (second, meters, Newtons, ...)
If the header above contains a line with 'inDegrees', this indicates whether rotational values are in degrees (yes) or radians (no).

endheader
time	pelvis_tilt	pelvis_list	pelvis_rotation	pelvis_tx	pelvis_ty	pelvis_tz	hip_flexion_r	hip_adduction_r	hip_rotation_r	knee_angle_r	knee_adduction_r	knee_angle_r_beta	ankle_angle_r	subtalar_angle_r	mtp_angle_r	hip_flexion_l	hip_adduction_l	hip_rotation_l	knee_angle_l	knee_adduction_l	knee_angle_l_beta	ankle_angle_l	subtalar_angle_l	mtp_angle_l	lumbar_extension	lumbar_bending	lumbar_rotation	arm_flex_r	arm_add_r	arm_rot_r	elbow_flex_r	pro_sup_r	wrist_flex_r	wrist_dev_r	arm_flex_l	arm_add_l	arm_rot_l	elbow_flex_l	pro_sup_l	wrist_flex_l	wrist_dev_l
      0.13000000	     13.23034028	     -1.93628312	      4.49069953	     -0.98445056	      0.83898407	     -0.24380343	     14.35050902	      0.87340772	    -22.54194202	     23.11552571	     -3.51246408	      0.40344203	      9.15573434	    -10.22936980	     -9.15694114	    -28.95492086	     -5.70383488	    -17.90647118	     20.16392112	     -0.29984841	      0.35192681	     18.42723292	      0.38253127	     -9.15694114	    -27.22216446	      3.84123483	     -1.13493350	     -9.35135786	     -2.87528586	    -13.57924226	     25.72977821	     90.00000001	      0.00000000	      0.00000000	     26.33467200	    -10.37800604	     -3.71326244	     53.70522183	     90.00000001	      0.00000000	      0.00000000
      0.14000000	     13.35544664	     -2.25441699	      4.24695751	     -0.97251919	      0.84107801	     -0.24123012	     13.51363278	      1.47775577	    -21.70579302	     23.52808165	     -3.32196835	      0.41064249	      8.77031914	    -11.78451688	     -9.01818393	    -28.87917299	     -5.98203795	    -15.85555411	     22.14676634	     -0.25427104	      0.38653399	     15.68013435	     -4.08715144	     -9.01818393	    -27.33479841	      4.10229930	     -0.79939173	     -8.45895277	     -2.93565903	    -14.33375167	     25.54119487	     90.00000001	      0.00000000	      0.00000000	     25.34742757	    -10.50231044	     -3.49900477	     53.62774100	     90.00000001	      0.00000000	      0.00000000
      0.15000000	     13.52054168	     -2.54627900	      3.98150066	     -0.96066941	      0.84337025	     -0.23851855	     12.54848537	      2.07808646	    -21.06336540	     23.74515669	     -3.16167060	      0.41443117	      8.68392547	    -12.63051823	     -8.89768025	    -28.63906310	     -6.28380658	    -13.99890129	     24.50630337	     -0.09379349	      0.42771568	     12.66831725	     -8.48066532	     -8.89768025	    -27.50483443	      4.30731894	     -0.41629728	     -7.60456398	     -3.03417979	    -14.76845415	     25.56804988	     90.00000001	      0.00000000	      0.00000000	     24.46913887	    -10.53186874	     -3.34792875	     53.11683820	     90.00000001	      0.00000000	      0.00000000
      0.16000000	     13.70640794	     -2.80900171	      3.72039848	     -0.94895264	      0.84579225	     -0.23576925	     11.46523651	      2.64136658	    -20.63932821	     23.74885240	     -2.99632676	      0.41449567	      8.79867233	    -12.93430245	     -8.79421243	    -28.20321641	     -6.60325492	    -12.31145415	     27.19159360	      0.13640025	      0.47458284	      9.66865589	    -12.53427290	     -8.79421243	    -27.71211018	      4.46937661	     -0.02967252	     -6.72235160	     -3.15660013	    -15.03317419	     25.69495483	     90.00000001	      0.00000000	      0.00000000	     23.60259543	    -10.52140024	     -3.22719648	     52.51826250	     90.00000001	      0.00000000	      0.00000000
      0.17000000	     13.96361207	     -3.01290034	      3.50098155	     -0.93751085	      0.84816708	     -0.23303014	     10.24055768	      3.10065176	    -20.61045336	     23.60735239	     -2.84178146	      0.41202603	      9.03428844	    -12.76219016	     -8.78267260	    -27.50186987	     -7.02951949	    -11.59904469	     30.38344144	      0.23192387	      0.53029109	      8.14251219	    -13.60892415	     -8.78267260	    -28.05093030	      4.57764472	      0.34992527	     -5.84318517	     -3.28703202	    -15.01327522	     26.00519486	     90.00000001	      0.00000000	      0.00000000	     22.79701042	    -10.50981316	     -3.19714880	     52.06896395	     90.00000001	      0.00000000	      0.00000000
      0.18000000	     13.88756491	     -3.32512016	      3.15329058	     -0.92620990	      0.85026049	     -0.23013760	      9.32585663	      3.83054109	    -20.54273366	     23.11989939	     -2.97375025	      0.40351837	      9.43828374	    -12.18250859	     -8.75188726	    -26.26163465	     -7.46226053	    -11.11433521	     33.78135284	      0.11519720	      0.58959583	      5.18619642	    -16.74904033	     -8.75188726	    -28.00290199	      4.74663624	      0.79133995	     -4.91255433	     -3.48599177	    -15.05494606	     26.27882533	     90.00000001	      0.00000000	      0.00000000	     21.78331085	    -10.45994014	     -3.02981960	     51.13415791	     90.00000001	      0.00000000	      0.00000000
      0.19000000	     14.07729688	     -3.39049472	      2.93896387	     -0.91530400	      0.85250916	     -0.22747840	      8.09206938	      4.10424610	    -20.85015670	     22.73409905	     -2.84672125	      0.39678488	      9.79277768	    -11.56224235	     -8.73160837	    -25.17459735	     -7.67861697	    -10.25261000	     37.13427878	      0.10613059	      0.64811543	      4.13095401	    -17.67257066	     -8.73160837	    -28.32277973	      4.68039384	      1.15201777	     -3.94071713	     -3.59242073	    -15.00208694	     26.71544018	     90.00000001	      0.00000000	      0.00000000	     21.01393973	    -10.43873274	     -2.94364183	     50.52146763	     90.00000001	      0.00000000	      0.00000000
